<svg height="682.667" viewBox="-21 0 512 512" width="682.667" xmlns="http://www.w3.org/2000/svg" xmlns:xlink="http://www.w3.org/1999/xlink"><defs><path id="a" d="m389.332 160c-44.094 0-80-35.883-80-80s35.906-80 80-80 80 35.883 80 80-35.902 80-80 80zm0-128c-26.453 0-48 21.523-48 48s21.547 48 48 48 48-21.523 48-48-21.547-48-48-48zm0 0"/></defs><use xlink:href="#a"/><use xlink:href="#a" y="352"/><path d="m80 336c-44.098 0-80-35.883-80-80s35.902-80 80-80 80 35.883 80 80-35.902 80-80 80zm0-128c-26.453 0-48 21.523-48 48s21.547 48 48 48 48-21.523 48-48-21.547-48-48-48zm0 0"/><path d="m135.703 240.426c-5.57 0-10.988-2.902-13.9-8.062a16 16 0 0 1 5.973-21.824l197.944-112.856c7.656-4.414 17.45-1.727 21.8 5.977a16 16 0 0 1 -5.973 21.824l-197.953 112.85a16.03 16.03 0 0 1 -7.891 2.09zm197.93 176c-2.687 0-5.398-.684-7.895-2.1l-197.953-112.866c-7.68-4.37-10.344-14.145-5.973-21.824 4.352-7.7 14.125-10.367 21.805-5.973l197.95 112.852c7.68 4.375 10.348 14.145 5.977 21.824-2.945 5.184-8.363 8.086-13.9 8.086zm0 0"/></svg>